<svg version="1.1" id="Layer_1" xmlns="http://www.w3.org/2000/svg" xmlns:xlink="http://www.w3.org/1999/xlink" x="0px" y="0px"
	 width="100%" viewBox="0 0 496 496" enable-background="new 0 0 496 496" xml:space="preserve">
<path fill="#000000" opacity="1.000000" stroke="none" 
	d="
M449.682861,272.248413 
	C456.886780,277.665161 463.965424,282.621124 469.401703,289.571136 
	C483.505707,307.602539 481.156799,333.411804 463.882690,348.643860 
	C456.905365,354.796356 448.997009,359.350555 440.129517,362.041260 
	C436.482910,363.147766 434.470764,364.839294 433.073029,368.629639 
	C427.345001,384.162781 412.881561,391.894775 399.187164,387.203979 
	C391.397980,384.535858 385.703888,379.358795 382.047302,372.043854 
	C380.825531,369.599762 379.383209,368.101715 376.504608,367.824982 
	C366.743103,366.886414 356.995331,365.799042 347.251190,364.690216 
	C344.393799,364.365051 344.347260,366.189819 344.336365,368.117065 
	C344.258911,381.783142 343.209167,395.388489 341.288940,408.903748 
	C338.537506,428.268890 334.280792,447.267487 324.144714,464.311584 
	C308.244019,491.049011 278.132538,495.006622 255.509064,473.548370 
	C245.370407,463.931946 238.841019,451.919800 233.649490,439.232452 
	C226.716507,422.289093 220.392548,405.096802 213.776505,388.023224 
	C213.130310,386.355621 212.910385,384.453827 211.000916,382.756989 
	C203.908524,386.295929 196.712097,390.024109 189.400055,393.509735 
	C166.838928,404.264496 144.137741,414.683838 119.178024,418.747498 
	C107.184830,420.700104 95.313118,420.548889 83.863113,415.793060 
	C66.984154,408.782318 57.643211,392.365021 59.409603,374.145996 
	C60.362595,364.316589 63.127922,355.205536 67.947884,346.752319 
	C69.981407,343.185913 69.530975,340.873627 66.888580,337.981537 
	C61.802826,332.415222 59.277863,325.818451 61.175865,318.206940 
	C64.232910,305.947296 75.849121,302.363586 85.103020,303.002563 
	C86.755646,303.116669 88.611557,303.109985 89.992172,303.860596 
	C96.620193,307.464203 100.255692,303.757019 103.958168,298.907166 
	C108.179131,293.378082 112.885345,288.219513 117.799980,282.403717 
	C113.025085,279.406464 108.691750,276.704132 104.375862,273.974243 
	C82.063492,259.861237 60.569042,244.726624 43.427650,224.289337 
	C36.320908,215.816116 30.248861,206.754349 27.424051,195.791565 
	C22.048998,174.931625 30.864910,156.212997 50.536026,147.260117 
	C62.496914,141.816360 75.098694,140.353867 88.079445,141.274872 
	C113.023941,143.044724 137.351959,148.675354 161.873993,153.082184 
	C167.332382,154.063126 168.013535,153.890915 167.575974,148.507858 
	C166.616013,136.697815 166.659134,124.879539 166.693237,113.056763 
	C166.700500,110.536537 165.823471,109.084183 163.410965,108.176170 
	C160.932419,107.243309 158.529602,106.010490 156.262878,104.630890 
	C146.913544,98.940491 142.948578,90.579590 144.973404,81.139145 
	C147.431671,69.677826 153.143158,64.345116 164.938873,62.821800 
	C167.316589,62.514744 168.341873,61.673988 168.828339,59.261669 
	C170.077332,53.068150 171.763779,47.010010 174.517090,41.232605 
	C182.339005,24.819572 197.775253,18.471106 214.342133,19.324549 
	C238.938889,20.591654 254.644852,35.849468 267.950714,54.318390 
	C282.261200,74.181801 292.291870,96.341362 301.328979,118.974632 
	C302.180634,121.107666 302.569519,123.478249 304.266815,125.228447 
	C306.400940,125.870468 307.725708,124.322311 309.243042,123.439430 
	C329.680878,111.547554 349.701813,98.884598 371.371277,89.251221 
	C381.298859,84.837814 391.487183,81.208557 402.683136,82.351158 
	C421.418365,84.263191 432.780334,95.351303 439.133179,112.205437 
	C445.099091,128.032898 442.615784,143.723495 436.922180,159.022766 
	C427.924286,183.201126 413.177643,203.980698 397.660004,224.277969 
	C394.854004,227.948257 391.441071,231.189392 388.971344,236.015030 
	C409.248840,247.975296 430.104156,258.721222 449.682861,272.248413 
M282.365448,323.886536 
	C296.270447,311.952484 310.148041,299.986267 323.491760,287.421112 
	C325.507599,285.522919 328.403778,284.134369 328.764526,281.024567 
	C329.415833,275.410095 330.496521,269.694275 329.414520,264.112854 
	C326.760193,250.420395 323.608002,236.825073 320.847656,223.152008 
	C320.268585,220.283585 318.688049,218.902252 316.228760,217.857681 
	C292.147583,207.629562 267.434906,199.172775 242.469894,191.411331 
	C240.023193,190.650681 238.143234,191.042450 236.088501,192.735596 
	C221.818054,204.494644 207.833023,216.575668 194.092163,228.949890 
	C191.485962,231.296890 190.882492,233.812180 191.456085,236.942047 
	C196.158188,262.599030 201.516632,288.109314 208.221359,313.330475 
	C208.976944,316.172760 210.555008,317.539185 213.087585,318.363434 
	C228.751480,323.461273 244.407516,328.583405 260.072601,333.677612 
	C261.632050,334.184753 263.159088,334.825623 264.868988,333.876617 
	C270.538605,330.729980 276.638458,328.353363 282.365448,323.886536 
M253.557617,95.991173 
	C250.556808,93.768341 246.500519,92.961563 244.484741,89.315453 
	C257.865540,92.685318 269.128448,100.457565 281.252899,106.602654 
	C279.752350,102.420799 277.917694,98.704216 276.074005,94.992111 
	C268.159729,79.057358 259.889343,63.458931 241.444550,57.136299 
	C239.725128,56.546906 238.105011,55.634171 236.497467,54.763271 
	C235.340500,54.136471 234.105484,53.440872 234.732498,50.885010 
	C240.611954,50.397812 245.121201,55.252392 251.679855,56.376534 
	C242.760544,44.780479 232.694382,36.873802 219.090042,34.093559 
	C209.098450,32.051636 199.735703,33.259174 191.958878,40.263062 
	C186.024307,45.607773 183.775742,52.958244 182.264893,60.616646 
	C181.353638,65.235603 182.339005,68.381821 186.641068,70.907501 
	C190.956833,73.441231 194.385742,77.182426 196.893112,81.637939 
	C201.336182,89.533142 200.033325,97.364380 192.930496,103.041580 
	C189.963547,105.413017 186.553406,107.257896 183.235733,109.151085 
	C181.517410,110.131622 180.246735,111.010460 180.493469,113.315773 
	C181.929367,126.731606 180.529343,140.266907 182.179108,153.694717 
	C182.524612,156.506912 183.501709,157.914978 186.124420,158.515610 
	C202.015152,162.154678 217.691620,166.597610 233.317856,171.218979 
	C235.894806,171.981079 238.099457,171.837097 240.340637,170.141403 
	C256.684540,157.775482 273.581757,146.199066 290.776337,135.053223 
	C292.226776,134.113022 293.734833,133.163895 292.865875,131.110764 
	C290.680481,125.947212 289.184265,120.489876 284.418060,116.689034 
	C274.881592,109.084099 264.743713,102.423599 253.557617,95.991173 
M349.981903,216.432602 
	C357.593658,220.193283 365.284912,223.804398 372.779083,227.786362 
	C375.889099,229.438858 377.546326,229.076920 379.764832,226.217392 
	C393.265625,208.815796 405.514618,190.594452 416.126587,171.305725 
	C424.324188,156.405487 430.582092,140.993790 427.683411,123.311279 
	C425.200714,108.166382 414.636108,96.948959 400.847534,95.978577 
	C392.905518,95.419640 385.312744,97.596397 378.254364,101.161568 
	C355.805878,112.500244 334.074554,125.116386 312.662292,138.296326 
	C309.986450,139.943375 309.168121,141.556091 310.233643,144.780334 
	C316.441315,163.564850 321.319366,182.728821 325.817780,201.982513 
	C326.514801,204.965912 328.014008,206.510544 330.658356,207.651611 
	C336.922699,210.354752 343.099731,213.260315 349.981903,216.432602 
M85.295349,217.270432 
	C91.359512,229.561386 98.774574,240.987808 107.127037,251.844864 
	C113.145943,259.668579 120.783203,265.200714 129.816696,269.202301 
	C140.891006,257.262177 151.771927,245.493652 163.820099,235.028839 
	C171.295746,228.535583 175.259811,222.382874 172.967789,211.805389 
	C170.486542,200.354599 170.231567,188.410339 169.192368,176.664780 
	C168.874512,173.072296 167.300888,171.676376 163.757431,170.908936 
	C143.945206,166.617966 123.931427,163.518890 103.939713,160.264801 
	C91.734886,158.278214 79.522636,157.108871 67.236145,159.365387 
	C52.850357,162.007462 43.221264,171.983276 43.022804,184.585938 
	C42.852940,195.373032 48.358025,203.625732 55.516304,212.049210 
	C54.279091,201.304382 51.179852,191.580475 53.576176,180.848999 
	C55.869473,182.685974 56.041248,184.452942 56.382019,186.242294 
	C58.592094,197.847168 61.408051,209.298340 65.490440,220.403687 
	C66.057274,221.945633 66.578445,223.736237 67.699142,224.805573 
	C75.794731,232.530167 84.469154,239.543167 94.945396,246.490997 
	C86.464935,232.397736 78.997139,219.406845 76.877769,204.267487 
	C77.320770,204.048553 77.763771,203.829605 78.206772,203.610672 
	C80.463127,207.939850 82.719482,212.269043 85.295349,217.270432 
M76.270958,374.684875 
	C75.294243,390.159241 84.483765,400.913177 99.983871,402.538055 
	C106.938332,403.267090 113.922424,402.666473 120.809860,401.084747 
	C150.010803,394.378723 176.584259,381.330902 202.808685,367.389282 
	C205.542084,365.936157 205.510147,364.227081 204.760574,361.671997 
	C201.060944,349.061188 197.412109,336.433197 193.981903,323.747314 
	C193.195160,320.837677 191.761612,319.204559 189.026611,318.130310 
	C170.913498,311.015808 152.858368,303.748810 136.451920,293.066345 
	C133.559372,291.182983 131.838455,291.960846 129.809174,294.469391 
	C124.886574,300.554657 119.784279,306.504791 114.540375,312.316284 
	C111.035126,316.200958 108.606796,319.857727 110.941620,325.549164 
	C112.060722,328.277100 111.499397,331.793762 111.331017,334.933502 
	C110.559303,349.324066 101.221558,356.603210 87.211716,353.659424 
	C84.434044,353.075745 82.747864,353.676971 81.563980,356.205383 
	C78.939766,361.809784 76.636665,367.498322 76.270958,374.684875 
M395.651794,267.836090 
	C390.093048,261.020538 384.300415,254.431641 377.623260,248.710403 
	C376.897369,249.140213 376.401703,249.314682 376.066223,249.649582 
	C365.105560,260.590363 354.183563,271.569977 343.192444,282.479950 
	C341.107605,284.549438 341.404602,286.818115 341.690826,289.394836 
	C342.678131,298.282318 344.601135,307.024109 344.163696,316.127411 
	C343.660919,326.589417 344.286530,337.103271 344.316040,347.594910 
	C344.323273,350.175079 345.048584,351.487793 347.891571,351.833618 
	C357.145905,352.959351 366.408539,353.791748 375.733948,353.958252 
	C378.093964,354.000397 379.260040,353.057434 380.096619,350.826874 
	C382.740509,343.777374 388.310730,340.173889 395.414856,338.687134 
	C407.981293,336.057281 418.764709,339.840607 428.006165,348.300629 
	C430.159851,350.272217 431.894470,350.808380 434.623260,349.817444 
	C440.959625,347.516418 446.941040,344.543701 451.850250,339.955322 
	C464.014648,328.585968 468.698029,313.148743 459.789062,300.206238 
	C453.171600,290.592712 443.493164,284.516449 433.544495,278.848755 
	C440.221039,289.654633 447.139832,300.213287 451.026550,312.925629 
	C447.578461,312.524048 447.245056,310.183838 446.319702,308.608032 
	C438.452698,295.211273 429.687653,282.443146 419.068787,271.091431 
	C413.115936,264.727783 404.910828,261.676941 397.069061,257.890564 
	C403.872589,268.780396 411.609589,279.044434 413.415161,292.248199 
	C406.883148,284.783478 402.357452,275.950287 395.651794,267.836090 
M315.687622,427.187836 
	C324.287476,416.767700 324.160126,404.039551 325.784851,390.237427 
	C317.836212,400.011749 311.033417,408.994415 299.411682,413.232391 
	C299.475128,410.323730 301.068024,409.215118 302.192139,407.910065 
	C306.320068,403.117554 310.749939,398.566650 314.637878,393.590179 
	C320.909973,385.562134 326.626434,377.171814 327.602234,366.551056 
	C327.887238,363.448975 327.540100,361.085846 323.698456,360.352844 
	C306.218262,357.017761 289.066650,352.338593 272.020966,347.271210 
	C269.480133,346.515869 267.271240,346.324127 265.056763,348.198669 
	C254.359192,357.253845 242.281982,364.240906 230.184387,371.178894 
	C227.809891,372.540649 226.896927,374.070160 227.888351,376.868042 
	C235.836441,399.297974 243.956238,421.665680 254.308411,443.123077 
	C258.768158,452.367065 264.676880,460.560730 273.810486,465.963043 
	C283.780182,471.859894 294.248749,471.415985 301.972443,464.242218 
	C309.479523,457.269501 313.509033,448.247284 316.289490,438.432312 
	C308.826813,444.921204 301.646515,451.690765 291.226898,453.374634 
	C299.485931,444.992340 308.511688,437.430573 315.687622,427.187836 
M312.523163,188.859970 
	C308.432861,175.059326 304.500702,161.204132 298.652283,147.155380 
	C283.666138,157.041992 269.336365,166.649170 255.034271,178.150040 
	C275.771545,185.145691 294.947052,192.539917 314.374329,200.442612 
	C315.117249,196.162689 313.317047,192.998932 312.523163,188.859970 
M328.010620,316.624939 
	C327.898376,310.249969 329.526154,303.866760 328.107208,296.819397 
	C311.414551,310.714325 295.167786,324.238098 278.544586,338.075165 
	C279.937195,338.695465 280.647125,339.130890 281.418335,339.337524 
	C295.370453,343.076233 309.531921,345.849915 323.722870,348.489349 
	C327.025116,349.103546 327.738464,347.332642 327.750000,344.532532 
	C327.786987,335.554047 327.920258,326.575928 328.010620,316.624939 
M181.633881,269.690125 
	C180.168839,261.789307 178.703796,253.888519 177.081772,245.141159 
	C165.629105,256.177490 155.180954,266.789581 144.739075,278.589508 
	C159.702606,288.032562 174.156723,297.154114 189.364273,306.751160 
	C186.648788,293.909882 184.178024,282.225769 181.633881,269.690125 
M359.389374,250.901978 
	C361.947205,247.891388 364.505066,244.880783 367.368958,241.509995 
	C355.535706,235.298065 344.005280,229.638275 331.933350,224.702377 
	C331.257385,229.401413 338.170197,267.334686 340.332275,270.644928 
	C347.185455,264.792175 352.852692,257.911224 359.389374,250.901978 
M195.396698,178.300171 
	C191.726852,177.549850 188.210632,175.940369 184.002945,176.117218 
	C184.642059,187.961395 185.941513,199.475235 188.046738,211.141891 
	C193.015747,208.447159 217.379547,187.785095 219.310120,184.539948 
	C211.502213,182.478043 203.856812,180.459061 195.396698,178.300171 
M247.763687,342.729034 
	C249.979065,341.290131 248.792221,340.148041 247.241913,339.596313 
	C235.933243,335.571808 224.584198,331.660736 212.503510,327.454651 
	C215.360550,337.839417 217.603241,347.389832 221.779190,356.820496 
	C230.628006,352.020874 238.910049,347.528687 247.763687,342.729034 
z"/>
<path fill="#000000" opacity="1.000000" stroke="none" 
	d="
M450.450745,157.438202 
	C454.448639,142.111908 454.784912,127.176125 450.670258,112.212502 
	C450.135132,110.266449 448.762451,107.688667 452.066589,106.912842 
	C454.900696,106.247383 455.690796,108.594055 456.337524,110.735359 
	C463.469788,134.351166 460.904602,157.109009 449.969452,178.997040 
	C446.473877,185.993912 442.402863,192.709930 436.598175,198.156311 
	C435.260712,199.411255 433.983032,200.767838 432.139526,201.251923 
	C430.406891,201.706879 428.843109,201.459274 427.705139,199.862274 
	C426.671356,198.411560 426.945129,197.031326 427.896851,195.711349 
	C428.869781,194.362000 429.794434,192.950256 430.939301,191.756805 
	C440.240662,182.060806 446.436371,170.604919 450.450745,157.438202 
z"/>
<path fill="#000000" opacity="1.000000" stroke="none" 
	d="
M138.261429,420.235931 
	C145.069641,417.862030 151.495865,415.615540 157.936218,413.410248 
	C159.328598,412.933502 161.009857,412.145660 162.000092,413.791870 
	C163.073273,415.576019 161.649628,416.932922 160.486847,418.111542 
	C158.352890,420.274689 155.743912,421.843872 152.972214,422.933228 
	C132.669540,430.912842 111.650795,433.713409 89.957031,431.325623 
	C89.143982,431.236145 88.328560,431.018738 87.559502,430.737305 
	C87.123886,430.577881 86.780563,430.166321 85.315613,429.032013 
	C103.269501,424.371216 121.147430,425.515839 138.261429,420.235931 
z"/>
<path fill="#000000" opacity="1.000000" stroke="none" 
	d="
M262.832428,26.707979 
	C281.189911,38.749229 294.083405,54.507706 299.735596,75.607185 
	C300.647125,79.009773 301.562775,82.632317 300.279816,86.674858 
	C297.916107,85.702812 297.582123,83.581444 296.823395,81.948914 
	C291.704742,70.935074 286.977814,59.729885 278.870422,50.394142 
	C273.375122,44.066250 267.287933,38.466515 260.243683,33.918461 
	C259.824249,33.647667 259.387299,33.395103 259.003998,33.078873 
	C257.223145,31.609631 254.680496,30.148966 255.967545,27.482378 
	C257.392365,24.530357 260.107086,25.583584 262.832428,26.707979 
z"/>
<path fill="#000000" opacity="1.000000" stroke="none" 
	d="
M356.448944,433.219971 
	C354.186035,445.552979 349.617798,456.554565 343.300873,466.816803 
	C341.630524,469.530396 339.128326,473.717255 335.795868,471.506348 
	C332.853760,469.554474 335.707947,465.657379 337.371307,463.131500 
	C349.138031,445.262878 353.616608,425.531250 352.769257,404.380035 
	C352.735992,403.549927 352.733490,402.716125 352.768768,401.886261 
	C352.833893,400.353607 352.933563,398.648773 354.912476,398.527161 
	C356.947418,398.402130 357.088440,400.107635 357.328033,401.626801 
	C358.974792,412.069061 358.795502,422.459320 356.448944,433.219971 
z"/>
<path fill="#000000" opacity="1.000000" stroke="none" 
	d="
M407.568878,224.584579 
	C411.702240,220.205795 415.161163,215.756851 418.208496,210.974091 
	C419.483826,208.972504 421.245789,206.677643 423.784027,208.174332 
	C426.592224,209.830231 425.369232,212.614182 423.983704,214.726959 
	C419.636658,221.355774 414.169189,226.838837 407.005432,230.456863 
	C405.962738,230.983490 404.913879,231.548248 403.478424,230.475540 
	C403.140289,227.633057 405.946106,226.669632 407.568878,224.584579 
z"/>
<path fill="#000000" opacity="1.000000" stroke="none" 
	d="
M190.161682,405.943115 
	C186.876358,412.048462 181.257477,414.348999 175.386612,416.146973 
	C173.775558,416.640320 171.887939,416.200653 171.115326,414.442902 
	C170.204666,412.371124 171.527512,410.899261 173.202850,409.967438 
	C177.247955,407.717499 181.340988,405.547760 185.476761,403.469147 
	C187.735046,402.334137 189.270782,403.331360 190.161682,405.943115 
z"/>
<path fill="#000000" opacity="1.000000" stroke="none" 
	d="
M244.926071,12.548233 
	C248.525848,13.927591 253.240723,15.136410 251.374634,19.376730 
	C249.444931,23.761631 245.602295,20.260788 242.893021,18.940546 
	C239.382690,17.229952 235.185410,17.238764 231.356750,14.267691 
	C235.694427,10.436646 240.123642,11.526831 244.926071,12.548233 
z"/>
<path fill="#000000" opacity="1.000000" stroke="none" 
	d="
M326.062622,482.221191 
	C323.187408,483.610260 320.674896,484.918243 318.056610,485.960571 
	C316.820038,486.452911 315.337646,486.385529 314.468719,485.046692 
	C313.526672,483.595215 314.406647,482.288208 315.461975,481.585052 
	C319.549866,478.861481 323.599854,475.790894 329.002594,476.967102 
	C329.916962,479.889862 327.767426,480.744080 326.062622,482.221191 
z"/>
<path fill="#000000" opacity="1.000000" stroke="none" 
	d="
M234.171280,281.885223 
	C224.283737,272.756409 221.435455,261.766785 224.788910,249.394089 
	C227.802032,238.276917 235.138382,231.043732 246.500549,228.188019 
	C262.854034,224.077835 279.742584,234.605270 285.110229,252.533142 
	C288.102051,262.525909 287.802277,272.266632 281.187103,280.994781 
	C277.993042,285.209106 273.837372,287.613373 268.338654,287.352264 
	C266.365814,287.258545 264.214783,287.083160 262.419312,287.719177 
	C251.919907,291.438324 242.830063,288.667511 234.171280,281.885223 
M234.585495,256.078430 
	C234.284393,257.900513 234.372620,259.683350 234.759048,261.509705 
	C236.961151,271.917450 249.587296,282.840027 260.415344,283.615845 
	C261.929169,283.724304 263.414520,283.721710 264.560089,282.453766 
	C271.126251,275.186310 277.296814,266.533936 273.012909,254.111969 
	C269.539795,244.041107 262.400940,238.660767 252.192551,239.035309 
	C243.237350,239.363892 237.332336,244.896133 234.585495,256.078430 
z"/>
<path fill="#000000" opacity="1.000000" stroke="none" 
	d="
M418.385254,139.971481 
	C415.074188,141.047943 412.623840,139.985718 412.474213,137.012222 
	C412.009247,127.773026 409.247406,119.116829 406.607208,110.396294 
	C406.393036,109.688881 406.690979,108.826408 406.745148,108.112465 
	C409.194336,107.190598 410.547058,108.621208 411.678314,109.967300 
	C418.315704,117.865234 420.759064,127.126396 420.145721,137.275970 
	C420.093628,138.137604 419.223572,138.949799 418.385254,139.971481 
z"/>
<path fill="#000000" opacity="1.000000" stroke="none" 
	d="
M269.799438,256.690491 
	C270.528198,259.924377 270.176697,262.678223 269.168488,265.363495 
	C268.551544,267.006683 267.240326,267.568787 265.608948,267.400238 
	C264.131470,267.247620 262.928864,266.303345 262.925507,264.908600 
	C262.911652,259.205322 262.686981,253.518631 261.367767,247.360901 
	C267.137665,248.489685 268.551117,252.260803 269.799438,256.690491 
z"/>
</svg>